# xmcd
# 
# Track frame offsets:
#     150
#     19155
#     33277
#     63082
#     82970
#     102867
#     126997
#     139337
#     164040
#     179812
#     198980
#     214732
#     240402
# 
# Disc length: 3398
# 
# Revision: 9
# Processed by: cddbd v1.5.2PL0 Copyright (c) Steve Scherf et al.
# Submitted via: fre:ac v1.0.31
# 
DISCID=b60d440d
DTITLE=Blues - This Ain't No Tribute All Blues'd Up Songs Of Janis Joplin Disc 2
DYEAR=2011
DGENRE=Blues
TTITLE0=Tracy Nelson - What Good Can Drinkin' Do
TTITLE1=Tad Robinson - Move Over
TTITLE2=Etta James - Ball and Chain
TTITLE3=Otis Clay - Piece of My Heart
TTITLE4=Lonnie Brooks - Maybe
TTITLE5=Lou Ann Barton - One Good Man
TTITLE6=Paul Black - Down on Me
TTITLE7=Koko Taylor - Get It While You Can
TTITLE8=Willie Kent - Trouble in Mind
TTITLE9=Lynne Jordan - Turtle Blues
TTITLE10=Cathy Richardson and Sugar Blue - Try (Just a Little Bit Harder)
TTITLE11=Syl Johnson - Me and Bobby McGee
TTITLE12=Taj Mahal - Mercedes Benz
EXTD=
EXTT0=
EXTT1=
EXTT2=
EXTT3=
EXTT4=
EXTT5=
EXTT6=
EXTT7=
EXTT8=
EXTT9=
EXTT10=
EXTT11=
EXTT12=
PLAYORDER=
